# xmcd CD database file generated by Grip 3.2.0
# 
# Track frame offsets:
#       150
#       13822
#       27672
#       40745
#       56667
#       73555
#       85825
#       100872
#       128665
#       142380
#       161310
#       172275
# 
# Disc length: 2536 seconds
# 
# Revision: 4
# Processed by: cddbd v1.5.1PL0 Copyright (c) Steve Scherf et al.
# Submitted via: Grip 3.2.0
# 
DISCID=a809e60c
DTITLE=Various Artist - Sounding Out the Blues
DYEAR=1900
DGENRE=Blues
TTITLE0=Big Joe Turner - Shake, Rattle And Roll
TTITLE1=Charles Brown - I Want A G.I.R.L.
TTITLE2=Lena Horne - Love Me Or Leave me
TTITLE3=B.B. King - How Blue Can You Get
TTITLE4=John Lee Hooker - Blues Before Sunrise
TTITLE5=Joe Williams - Sugar Mama
TTITLE6=Leadbelly - In New Orleans
TTITLE7=Joe Liggins - Stinky
TTITLE8=Dinah Washington - Blues On My Weary Mind
TTITLE9=John Mayall - John Lee Boogie
TTITLE10=Billie Holiday - What A Little Moonlight Can Do
TTITLE11=Lightnin' Hopkins - Shake That Thing
EXTD=
EXTT0=
EXTT1=
EXTT2=
EXTT3=
EXTT4=
EXTT5=
EXTT6=
EXTT7=
EXTT8=
EXTT9=
EXTT10=
EXTT11=
PLAYORDER=
